<svg xmlns="http://www.w3.org/2000/svg" xmlns:xlink="http://www.w3.org/1999/xlink" contentStyleType="text/css" data-diagram-type="CLASS" height="317px" preserveAspectRatio="none" style="width:949px;height:317px;background:#FFFFFF;" version="1.1" viewBox="0 0 949 317" width="949px" zoomAndPan="magnify"><defs/><g><!--cluster Phpolar--><g class="cluster" data-entity="Phpolar" data-source-line="15" data-uid="ent0004" id="cluster_Phpolar"><path d="M199.5,4 L261.5176,4 A3.75,3.75 0 0 1 264.0176,6.5 L271.0176,26.2969 L939.5,26.2969 A2.5,2.5 0 0 1 942,28.7969 L942,303.5 A2.5,2.5 0 0 1 939.5,306 L199.5,306 A2.5,2.5 0 0 1 197,303.5 L197,6.5 A2.5,2.5 0 0 1 199.5,4" fill="none" style="stroke:#000000;stroke-width:1.5;"/><line style="stroke:#000000;stroke-width:1.5;" x1="197" x2="271.0176" y1="26.2969" y2="26.2969"/><text fill="#000000" font-family="sans-serif" font-size="14" font-weight="bold" lengthAdjust="spacing" textLength="61.0176" x="201" y="18.9951">Phpolar</text></g><!--cluster Migrations--><g class="cluster" data-entity="Migrations" data-source-line="14" data-uid="ent0002" id="cluster_Migrations"><path d="M207.5,31 L293.0127,31 A3.75,3.75 0 0 1 295.5127,33.5 L302.5127,53.2969 L931.5,53.2969 A2.5,2.5 0 0 1 934,55.7969 L934,295.5 A2.5,2.5 0 0 1 931.5,298 L207.5,298 A2.5,2.5 0 0 1 205,295.5 L205,33.5 A2.5,2.5 0 0 1 207.5,31" fill="none" style="stroke:#000000;stroke-width:1.5;"/><line style="stroke:#000000;stroke-width:1.5;" x1="205" x2="302.5127" y1="53.2969" y2="53.2969"/><text fill="#000000" font-family="sans-serif" font-size="14" font-weight="bold" lengthAdjust="spacing" textLength="84.5127" x="209" y="45.9951">Migrations</text></g><!--cluster Psr--><g class="cluster" data-entity="Psr" data-source-line="59" data-uid="ent0018" id="cluster_Psr"><path d="M16.5,200 L42.998,200 A3.75,3.75 0 0 1 45.498,202.5 L52.498,222.2969 L186.5,222.2969 A2.5,2.5 0 0 1 189,224.7969 L189,307.5 A2.5,2.5 0 0 1 186.5,310 L16.5,310 A2.5,2.5 0 0 1 14,307.5 L14,202.5 A2.5,2.5 0 0 1 16.5,200" fill="none" style="stroke:#000000;stroke-width:1.5;"/><line style="stroke:#000000;stroke-width:1.5;" x1="14" x2="52.498" y1="222.2969" y2="222.2969"/><text fill="#000000" font-family="sans-serif" font-size="14" font-weight="bold" lengthAdjust="spacing" textLength="25.498" x="18" y="214.9951">Psr</text></g><!--cluster Log--><g class="cluster" data-entity="Log" data-source-line="58" data-uid="ent0016" id="cluster_Log"><path d="M24.5,227 L54.0605,227 A3.75,3.75 0 0 1 56.5605,229.5 L63.5605,249.2969 L178.5,249.2969 A2.5,2.5 0 0 1 181,251.7969 L181,299.5 A2.5,2.5 0 0 1 178.5,302 L24.5,302 A2.5,2.5 0 0 1 22,299.5 L22,229.5 A2.5,2.5 0 0 1 24.5,227" fill="none" style="stroke:#000000;stroke-width:1.5;"/><line style="stroke:#000000;stroke-width:1.5;" x1="22" x2="63.5605" y1="249.2969" y2="249.2969"/><text fill="#000000" font-family="sans-serif" font-size="14" font-weight="bold" lengthAdjust="spacing" textLength="28.5605" x="26" y="241.9951">Log</text></g><!--class CreateCommand__class--><g class="entity" data-entity="CreateCommand__class" data-source-line="15" data-uid="ent0003" id="entity_CreateCommand__class"><rect fill="#F1F1F1" height="32" rx="2.5" ry="2.5" style="stroke:#181818;stroke-width:0.5;" width="150.7813" x="240.5" y="158"/><ellipse cx="255.5" cy="174" fill="#ADD1B2" rx="11" ry="11" style="stroke:#181818;stroke-width:1;"/><path d="M258.4688,179.6406 Q257.8906,179.9375 257.25,180.0781 Q256.6094,180.2344 255.9063,180.2344 Q253.4063,180.2344 252.0781,178.5938 Q250.7656,176.9375 250.7656,173.8125 Q250.7656,170.6875 252.0781,169.0313 Q253.4063,167.375 255.9063,167.375 Q256.6094,167.375 257.25,167.5313 Q257.9063,167.6875 258.4688,167.9844 L258.4688,170.7031 Q257.8438,170.125 257.25,169.8594 Q256.6563,169.5781 256.0313,169.5781 Q254.6875,169.5781 254,170.6563 Q253.3125,171.7188 253.3125,173.8125 Q253.3125,175.9063 254,176.9844 Q254.6875,178.0469 256.0313,178.0469 Q256.6563,178.0469 257.25,177.7813 Q257.8438,177.5 258.4688,176.9219 L258.4688,179.6406 Z " fill="#000000"/><text fill="#000000" font-family="sans-serif" font-size="14" lengthAdjust="spacing" textLength="118.7813" x="269.5" y="178.8467">CreateCommand</text></g><!--class CreateCommandHandler__class--><g class="entity" data-entity="CreateCommandHandler__class" data-source-line="19" data-uid="ent0005" id="entity_CreateCommandHandler__class"><rect fill="#F1F1F1" height="32" rx="2.5" ry="2.5" style="stroke:#181818;stroke-width:0.5;" width="205.9063" x="213" y="108"/><ellipse cx="228" cy="124" fill="#ADD1B2" rx="11" ry="11" style="stroke:#181818;stroke-width:1;"/><path d="M230.9688,129.6406 Q230.3906,129.9375 229.75,130.0781 Q229.1094,130.2344 228.4063,130.2344 Q225.9063,130.2344 224.5781,128.5938 Q223.2656,126.9375 223.2656,123.8125 Q223.2656,120.6875 224.5781,119.0313 Q225.9063,117.375 228.4063,117.375 Q229.1094,117.375 229.75,117.5313 Q230.4063,117.6875 230.9688,117.9844 L230.9688,120.7031 Q230.3438,120.125 229.75,119.8594 Q229.1563,119.5781 228.5313,119.5781 Q227.1875,119.5781 226.5,120.6563 Q225.8125,121.7188 225.8125,123.8125 Q225.8125,125.9063 226.5,126.9844 Q227.1875,128.0469 228.5313,128.0469 Q229.1563,128.0469 229.75,127.7813 Q230.3438,127.5 230.9688,126.9219 L230.9688,129.6406 Z " fill="#000000"/><text fill="#000000" font-family="sans-serif" font-size="14" lengthAdjust="spacing" textLength="173.9063" x="242" y="128.8467">CreateCommandHandler</text></g><!--class GetLastMigrationQuery__class--><g class="entity" data-entity="GetLastMigrationQuery__class" data-source-line="23" data-uid="ent0006" id="entity_GetLastMigrationQuery__class"><rect fill="#F1F1F1" height="32" rx="2.5" ry="2.5" style="stroke:#181818;stroke-width:0.5;" width="194.668" x="218.5" y="58"/><ellipse cx="233.5" cy="74" fill="#ADD1B2" rx="11" ry="11" style="stroke:#181818;stroke-width:1;"/><path d="M236.4688,79.6406 Q235.8906,79.9375 235.25,80.0781 Q234.6094,80.2344 233.9063,80.2344 Q231.4063,80.2344 230.0781,78.5938 Q228.7656,76.9375 228.7656,73.8125 Q228.7656,70.6875 230.0781,69.0313 Q231.4063,67.375 233.9063,67.375 Q234.6094,67.375 235.25,67.5313 Q235.9063,67.6875 236.4688,67.9844 L236.4688,70.7031 Q235.8438,70.125 235.25,69.8594 Q234.6563,69.5781 234.0313,69.5781 Q232.6875,69.5781 232,70.6563 Q231.3125,71.7188 231.3125,73.8125 Q231.3125,75.9063 232,76.9844 Q232.6875,78.0469 234.0313,78.0469 Q234.6563,78.0469 235.25,77.7813 Q235.8438,77.5 236.4688,76.9219 L236.4688,79.6406 Z " fill="#000000"/><text fill="#000000" font-family="sans-serif" font-size="14" lengthAdjust="spacing" textLength="162.668" x="247.5" y="78.8467">GetLastMigrationQuery</text></g><!--class GetPendingMigrationsQuery__class--><g class="entity" data-entity="GetPendingMigrationsQuery__class" data-source-line="27" data-uid="ent0007" id="entity_GetPendingMigrationsQuery__class"><rect fill="#F1F1F1" height="32" rx="2.5" ry="2.5" style="stroke:#181818;stroke-width:0.5;" width="229.2646" x="455" y="158"/><ellipse cx="470" cy="174" fill="#ADD1B2" rx="11" ry="11" style="stroke:#181818;stroke-width:1;"/><path d="M472.9688,179.6406 Q472.3906,179.9375 471.75,180.0781 Q471.1094,180.2344 470.4063,180.2344 Q467.9063,180.2344 466.5781,178.5938 Q465.2656,176.9375 465.2656,173.8125 Q465.2656,170.6875 466.5781,169.0313 Q467.9063,167.375 470.4063,167.375 Q471.1094,167.375 471.75,167.5313 Q472.4063,167.6875 472.9688,167.9844 L472.9688,170.7031 Q472.3438,170.125 471.75,169.8594 Q471.1563,169.5781 470.5313,169.5781 Q469.1875,169.5781 468.5,170.6563 Q467.8125,171.7188 467.8125,173.8125 Q467.8125,175.9063 468.5,176.9844 Q469.1875,178.0469 470.5313,178.0469 Q471.1563,178.0469 471.75,177.7813 Q472.3438,177.5 472.9688,176.9219 L472.9688,179.6406 Z " fill="#000000"/><text fill="#000000" font-family="sans-serif" font-size="14" lengthAdjust="spacing" textLength="197.2646" x="484" y="178.8467">GetPendingMigrationsQuery</text></g><!--class MigrationRunResult__class--><g class="entity" data-entity="MigrationRunResult__class" data-source-line="31" data-uid="ent0008" id="entity_MigrationRunResult__class"><rect fill="#F1F1F1" height="32" rx="2.5" ry="2.5" style="stroke:#181818;stroke-width:0.5;" width="169.3682" x="485" y="108"/><ellipse cx="500" cy="124" fill="#ADD1B2" rx="11" ry="11" style="stroke:#181818;stroke-width:1;"/><path d="M502.9688,129.6406 Q502.3906,129.9375 501.75,130.0781 Q501.1094,130.2344 500.4063,130.2344 Q497.9063,130.2344 496.5781,128.5938 Q495.2656,126.9375 495.2656,123.8125 Q495.2656,120.6875 496.5781,119.0313 Q497.9063,117.375 500.4063,117.375 Q501.1094,117.375 501.75,117.5313 Q502.4063,117.6875 502.9688,117.9844 L502.9688,120.7031 Q502.3438,120.125 501.75,119.8594 Q501.1563,119.5781 500.5313,119.5781 Q499.1875,119.5781 498.5,120.6563 Q497.8125,121.7188 497.8125,123.8125 Q497.8125,125.9063 498.5,126.9844 Q499.1875,128.0469 500.5313,128.0469 Q501.1563,128.0469 501.75,127.7813 Q502.3438,127.5 502.9688,126.9219 L502.9688,129.6406 Z " fill="#000000"/><text fill="#000000" font-family="sans-serif" font-size="14" lengthAdjust="spacing" textLength="137.3682" x="514" y="128.8467">MigrationRunResult</text></g><!--class RevertCommand__class--><g class="entity" data-entity="RevertCommand__class" data-source-line="35" data-uid="ent0009" id="entity_RevertCommand__class"><rect fill="#F1F1F1" height="32" rx="2.5" ry="2.5" style="stroke:#181818;stroke-width:0.5;" width="150.4395" x="494.5" y="58"/><ellipse cx="509.5" cy="74" fill="#ADD1B2" rx="11" ry="11" style="stroke:#181818;stroke-width:1;"/><path d="M512.4688,79.6406 Q511.8906,79.9375 511.25,80.0781 Q510.6094,80.2344 509.9063,80.2344 Q507.4063,80.2344 506.0781,78.5938 Q504.7656,76.9375 504.7656,73.8125 Q504.7656,70.6875 506.0781,69.0313 Q507.4063,67.375 509.9063,67.375 Q510.6094,67.375 511.25,67.5313 Q511.9063,67.6875 512.4688,67.9844 L512.4688,70.7031 Q511.8438,70.125 511.25,69.8594 Q510.6563,69.5781 510.0313,69.5781 Q508.6875,69.5781 508,70.6563 Q507.3125,71.7188 507.3125,73.8125 Q507.3125,75.9063 508,76.9844 Q508.6875,78.0469 510.0313,78.0469 Q510.6563,78.0469 511.25,77.7813 Q511.8438,77.5 512.4688,76.9219 L512.4688,79.6406 Z " fill="#000000"/><text fill="#000000" font-family="sans-serif" font-size="14" lengthAdjust="spacing" textLength="118.4395" x="523.5" y="78.8467">RevertCommand</text></g><!--class RevertCommandHandler__class--><g class="entity" data-entity="RevertCommandHandler__class" data-source-line="39" data-uid="ent0010" id="entity_RevertCommandHandler__class"><rect fill="#F1F1F1" height="32" rx="2.5" ry="2.5" style="stroke:#181818;stroke-width:0.5;" width="205.5645" x="720" y="158"/><ellipse cx="735" cy="174" fill="#ADD1B2" rx="11" ry="11" style="stroke:#181818;stroke-width:1;"/><path d="M737.9688,179.6406 Q737.3906,179.9375 736.75,180.0781 Q736.1094,180.2344 735.4063,180.2344 Q732.9063,180.2344 731.5781,178.5938 Q730.2656,176.9375 730.2656,173.8125 Q730.2656,170.6875 731.5781,169.0313 Q732.9063,167.375 735.4063,167.375 Q736.1094,167.375 736.75,167.5313 Q737.4063,167.6875 737.9688,167.9844 L737.9688,170.7031 Q737.3438,170.125 736.75,169.8594 Q736.1563,169.5781 735.5313,169.5781 Q734.1875,169.5781 733.5,170.6563 Q732.8125,171.7188 732.8125,173.8125 Q732.8125,175.9063 733.5,176.9844 Q734.1875,178.0469 735.5313,178.0469 Q736.1563,178.0469 736.75,177.7813 Q737.3438,177.5 737.9688,176.9219 L737.9688,179.6406 Z " fill="#000000"/><text fill="#000000" font-family="sans-serif" font-size="14" lengthAdjust="spacing" textLength="173.5645" x="749" y="178.8467">RevertCommandHandler</text></g><!--class RunCommand__class--><g class="entity" data-entity="RunCommand__class" data-source-line="43" data-uid="ent0011" id="entity_RunCommand__class"><rect fill="#F1F1F1" height="32" rx="2.5" ry="2.5" style="stroke:#181818;stroke-width:0.5;" width="131.4287" x="757.5" y="108"/><ellipse cx="772.5" cy="124" fill="#ADD1B2" rx="11" ry="11" style="stroke:#181818;stroke-width:1;"/><path d="M775.4688,129.6406 Q774.8906,129.9375 774.25,130.0781 Q773.6094,130.2344 772.9063,130.2344 Q770.4063,130.2344 769.0781,128.5938 Q767.7656,126.9375 767.7656,123.8125 Q767.7656,120.6875 769.0781,119.0313 Q770.4063,117.375 772.9063,117.375 Q773.6094,117.375 774.25,117.5313 Q774.9063,117.6875 775.4688,117.9844 L775.4688,120.7031 Q774.8438,120.125 774.25,119.8594 Q773.6563,119.5781 773.0313,119.5781 Q771.6875,119.5781 771,120.6563 Q770.3125,121.7188 770.3125,123.8125 Q770.3125,125.9063 771,126.9844 Q771.6875,128.0469 773.0313,128.0469 Q773.6563,128.0469 774.25,127.7813 Q774.8438,127.5 775.4688,126.9219 L775.4688,129.6406 Z " fill="#000000"/><text fill="#000000" font-family="sans-serif" font-size="14" lengthAdjust="spacing" textLength="99.4287" x="786.5" y="128.8467">RunCommand</text></g><!--class RunCommandHandler__class--><g class="entity" data-entity="RunCommandHandler__class" data-source-line="47" data-uid="ent0012" id="entity_RunCommandHandler__class"><rect fill="#F1F1F1" height="32" rx="2.5" ry="2.5" style="stroke:#181818;stroke-width:0.5;" width="186.5537" x="729.5" y="58"/><ellipse cx="744.5" cy="74" fill="#ADD1B2" rx="11" ry="11" style="stroke:#181818;stroke-width:1;"/><path d="M747.4688,79.6406 Q746.8906,79.9375 746.25,80.0781 Q745.6094,80.2344 744.9063,80.2344 Q742.4063,80.2344 741.0781,78.5938 Q739.7656,76.9375 739.7656,73.8125 Q739.7656,70.6875 741.0781,69.0313 Q742.4063,67.375 744.9063,67.375 Q745.6094,67.375 746.25,67.5313 Q746.9063,67.6875 747.4688,67.9844 L747.4688,70.7031 Q746.8438,70.125 746.25,69.8594 Q745.6563,69.5781 745.0313,69.5781 Q743.6875,69.5781 743,70.6563 Q742.3125,71.7188 742.3125,73.8125 Q742.3125,75.9063 743,76.9844 Q743.6875,78.0469 745.0313,78.0469 Q745.6563,78.0469 746.25,77.7813 Q746.8438,77.5 747.4688,76.9219 L747.4688,79.6406 Z " fill="#000000"/><text fill="#000000" font-family="sans-serif" font-size="14" lengthAdjust="spacing" textLength="154.5537" x="758.5" y="78.8467">RunCommandHandler</text></g><!--class FileWriterInterface__interface--><g class="entity" data-entity="FileWriterInterface__interface" data-source-line="51" data-uid="ent0013" id="entity_FileWriterInterface__interface"><rect fill="#F1F1F1" height="32" rx="2.5" ry="2.5" style="stroke:#181818;stroke-width:0.5;" width="162.4707" x="235" y="208"/><ellipse cx="250" cy="224" fill="#B4A7E5" rx="11" ry="11" style="stroke:#181818;stroke-width:1;"/><path d="M245.9219,219.7656 L245.9219,217.6094 L253.3125,217.6094 L253.3125,219.7656 L250.8438,219.7656 L250.8438,227.8438 L253.3125,227.8438 L253.3125,230 L245.9219,230 L245.9219,227.8438 L248.3906,227.8438 L248.3906,219.7656 L245.9219,219.7656 Z " fill="#000000"/><text fill="#000000" font-family="sans-serif" font-size="14" font-style="italic" lengthAdjust="spacing" textLength="130.4707" x="264" y="228.8467">FileWriterInterface</text></g><!--class SimpleFileWriter__class--><g class="entity" data-entity="SimpleFileWriter__class" data-source-line="55" data-uid="ent0014" id="entity_SimpleFileWriter__class"><rect fill="#F1F1F1" height="32" rx="2.5" ry="2.5" style="stroke:#181818;stroke-width:0.5;" width="147.5957" x="495.5" y="208"/><ellipse cx="510.5" cy="224" fill="#ADD1B2" rx="11" ry="11" style="stroke:#181818;stroke-width:1;"/><path d="M513.4688,229.6406 Q512.8906,229.9375 512.25,230.0781 Q511.6094,230.2344 510.9063,230.2344 Q508.4063,230.2344 507.0781,228.5938 Q505.7656,226.9375 505.7656,223.8125 Q505.7656,220.6875 507.0781,219.0313 Q508.4063,217.375 510.9063,217.375 Q511.6094,217.375 512.25,217.5313 Q512.9063,217.6875 513.4688,217.9844 L513.4688,220.7031 Q512.8438,220.125 512.25,219.8594 Q511.6563,219.5781 511.0313,219.5781 Q509.6875,219.5781 509,220.6563 Q508.3125,221.7188 508.3125,223.8125 Q508.3125,225.9063 509,226.9844 Q509.6875,228.0469 511.0313,228.0469 Q511.6563,228.0469 512.25,227.7813 Q512.8438,227.5 513.4688,226.9219 L513.4688,229.6406 Z " fill="#000000"/><text fill="#000000" font-family="sans-serif" font-size="14" lengthAdjust="spacing" textLength="115.5957" x="524.5" y="228.8467">SimpleFileWriter</text></g><!--class StreamLogger__class--><g class="entity" data-entity="StreamLogger__class" data-source-line="63" data-uid="ent0019" id="entity_StreamLogger__class"><rect fill="#F1F1F1" height="32" rx="2.5" ry="2.5" style="stroke:#181818;stroke-width:0.5;" width="131.4697" x="250.5" y="258"/><ellipse cx="265.5" cy="274" fill="#ADD1B2" rx="11" ry="11" style="stroke:#181818;stroke-width:1;"/><path d="M268.4688,279.6406 Q267.8906,279.9375 267.25,280.0781 Q266.6094,280.2344 265.9063,280.2344 Q263.4063,280.2344 262.0781,278.5938 Q260.7656,276.9375 260.7656,273.8125 Q260.7656,270.6875 262.0781,269.0313 Q263.4063,267.375 265.9063,267.375 Q266.6094,267.375 267.25,267.5313 Q267.9063,267.6875 268.4688,267.9844 L268.4688,270.7031 Q267.8438,270.125 267.25,269.8594 Q266.6563,269.5781 266.0313,269.5781 Q264.6875,269.5781 264,270.6563 Q263.3125,271.7188 263.3125,273.8125 Q263.3125,275.9063 264,276.9844 Q264.6875,278.0469 266.0313,278.0469 Q266.6563,278.0469 267.25,277.7813 Q267.8438,277.5 268.4688,276.9219 L268.4688,279.6406 Z " fill="#000000"/><text fill="#000000" font-family="sans-serif" font-size="14" lengthAdjust="spacing" textLength="99.4697" x="279.5" y="278.8467">StreamLogger</text></g><!--class LoggerInterface__class--><g class="entity" data-entity="LoggerInterface__class" data-source-line="59" data-uid="ent0017" id="entity_LoggerInterface__class"><rect fill="#F1F1F1" height="40.2656" rx="2.5" ry="2.5" style="stroke:#181818;stroke-width:0.5;" width="143.1865" x="30" y="254"/><ellipse cx="45" cy="274.1328" fill="#ADD1B2" rx="11" ry="11" style="stroke:#181818;stroke-width:1;"/><path d="M47.9688,279.7734 Q47.3906,280.0703 46.75,280.2109 Q46.1094,280.3672 45.4063,280.3672 Q42.9063,280.3672 41.5781,278.7266 Q40.2656,277.0703 40.2656,273.9453 Q40.2656,270.8203 41.5781,269.1641 Q42.9063,267.5078 45.4063,267.5078 Q46.1094,267.5078 46.75,267.6641 Q47.4063,267.8203 47.9688,268.1172 L47.9688,270.8359 Q47.3438,270.2578 46.75,269.9922 Q46.1563,269.7109 45.5313,269.7109 Q44.1875,269.7109 43.5,270.7891 Q42.8125,271.8516 42.8125,273.9453 Q42.8125,276.0391 43.5,277.1172 Q44.1875,278.1797 45.5313,278.1797 Q46.1563,278.1797 46.75,277.9141 Q47.3438,277.6328 47.9688,277.0547 L47.9688,279.7734 Z " fill="#000000"/><text fill="#000000" font-family="sans-serif" font-size="12" font-style="italic" lengthAdjust="spacing" textLength="64.4824" x="82.3521" y="270.1387">&#171;external&#187;</text><text fill="#000000" font-family="sans-serif" font-size="14" lengthAdjust="spacing" textLength="111.1865" x="59" y="285.9639">LoggerInterface</text></g><g class="link" data-entity-1="FileWriterInterface__interface" data-entity-2="SimpleFileWriter__class" data-uid="lnk15" id="link_FileWriterInterface__interface_SimpleFileWriter__class"><polygon fill="none" points="397.2677,224,415.2677,230,415.2677,218,397.2677,224" style="stroke:#516F42;stroke-width:1;"/><path d="M415.2677,224 C446.7503,224 464.6286,224 495.3823,224" fill="none" style="stroke:#516F42;stroke-width:1;stroke-dasharray:7,7;"/></g><g class="link" data-entity-1="LoggerInterface__class" data-entity-2="StreamLogger__class" data-uid="lnk20" id="link_LoggerInterface__class_StreamLogger__class"><polygon fill="none" points="173.2594,274,191.2594,280,191.2594,268,173.2594,274" style="stroke:#516F42;stroke-width:1;"/><path d="M191.2594,274 C216.1309,274 225.9336,274 250.2826,274" fill="none" style="stroke:#516F42;stroke-width:1;stroke-dasharray:7,7;"/></g><!--SRC=[hLHTI-D057sVNt7j_W9btISHjB8gkE3MXtq9b6jpampEHxXpemRnl-yqJPkcZLZQ1XAOS-wSS-xDC2SbOsuH3DQ-4WYM11qg00WlsfN8QE6AsR-DlV4CFyvFVsK_p_eypaI_QgclFQV4knJYx2LdNxcqBSwQPxZuHgFrBjrPV5c_YqSeCFLlskMGeGcarDTKnnZjIEgImBCKNXKw9I1RIWsMx3DnK8Oo0V70EYy4KiqKitcd0Wauj1HAdD4JpUKaHaiIfLOmF1QbDyX9yaVdaO_x0dpCOmFC38O0ep4J2eszjUZI4M207ZATBkhYizZtgJxtrx-Bho7Ujcc9WzrkIHumo8h_Mn7NZTqWSmo_Ht9f_BDTISzpc3tOTqLCAZUXK1bf3BVXWvqcz4eiw-UZXnnNV_ry3167krMkryfgUKJbNXERwDu-sWbnDgyP_TQ6_h6Ew_ibs9WDuDDfjs_FnfwqBGrrsetL9hZMLiDOSXBYNJGWdoJVv1oC6QB6WyzRieqMWNnp21lOCjZ51T1xn1mQkBpSSn8IhooxC5XCOGtuSW9jykOpbApByXy0]--></g></svg>