<svg xmlns="http://www.w3.org/2000/svg" xmlns:xlink="http://www.w3.org/1999/xlink" contentStyleType="text/css" data-diagram-type="CLASS" height="367px" preserveAspectRatio="none" style="width:930px;height:367px;background:#FFFFFF;" version="1.1" viewBox="0 0 930 367" width="930px" zoomAndPan="magnify"><defs/><g><!--cluster Phpolar--><g class="cluster" data-entity="Phpolar" data-source-line="15" data-uid="ent0004" id="cluster_Phpolar"><path d="M199.5,4 L261.5176,4 A3.75,3.75 0 0 1 264.0176,6.5 L271.0176,26.2969 L920.5,26.2969 A2.5,2.5 0 0 1 923,28.7969 L923,353.5 A2.5,2.5 0 0 1 920.5,356 L199.5,356 A2.5,2.5 0 0 1 197,353.5 L197,6.5 A2.5,2.5 0 0 1 199.5,4" fill="none" style="stroke:#000000;stroke-width:1.5;"/><line style="stroke:#000000;stroke-width:1.5;" x1="197" x2="271.0176" y1="26.2969" y2="26.2969"/><text fill="#000000" font-family="sans-serif" font-size="14" font-weight="bold" lengthAdjust="spacing" textLength="61.0176" x="201" y="18.9951">Phpolar</text></g><!--cluster Migrations--><g class="cluster" data-entity="Migrations" data-source-line="14" data-uid="ent0002" id="cluster_Migrations"><path d="M207.5,31 L293.0127,31 A3.75,3.75 0 0 1 295.5127,33.5 L302.5127,53.2969 L912.5,53.2969 A2.5,2.5 0 0 1 915,55.7969 L915,345.5 A2.5,2.5 0 0 1 912.5,348 L207.5,348 A2.5,2.5 0 0 1 205,345.5 L205,33.5 A2.5,2.5 0 0 1 207.5,31" fill="none" style="stroke:#000000;stroke-width:1.5;"/><line style="stroke:#000000;stroke-width:1.5;" x1="205" x2="302.5127" y1="53.2969" y2="53.2969"/><text fill="#000000" font-family="sans-serif" font-size="14" font-weight="bold" lengthAdjust="spacing" textLength="84.5127" x="209" y="45.9951">Migrations</text></g><!--cluster Psr--><g class="cluster" data-entity="Psr" data-source-line="67" data-uid="ent0022" id="cluster_Psr"><path d="M16.5,250 L42.998,250 A3.75,3.75 0 0 1 45.498,252.5 L52.498,272.2969 L186.5,272.2969 A2.5,2.5 0 0 1 189,274.7969 L189,357.5 A2.5,2.5 0 0 1 186.5,360 L16.5,360 A2.5,2.5 0 0 1 14,357.5 L14,252.5 A2.5,2.5 0 0 1 16.5,250" fill="none" style="stroke:#000000;stroke-width:1.5;"/><line style="stroke:#000000;stroke-width:1.5;" x1="14" x2="52.498" y1="272.2969" y2="272.2969"/><text fill="#000000" font-family="sans-serif" font-size="14" font-weight="bold" lengthAdjust="spacing" textLength="25.498" x="18" y="264.9951">Psr</text></g><!--cluster Log--><g class="cluster" data-entity="Log" data-source-line="66" data-uid="ent0020" id="cluster_Log"><path d="M24.5,277 L54.0605,277 A3.75,3.75 0 0 1 56.5605,279.5 L63.5605,299.2969 L178.5,299.2969 A2.5,2.5 0 0 1 181,301.7969 L181,349.5 A2.5,2.5 0 0 1 178.5,352 L24.5,352 A2.5,2.5 0 0 1 22,349.5 L22,279.5 A2.5,2.5 0 0 1 24.5,277" fill="none" style="stroke:#000000;stroke-width:1.5;"/><line style="stroke:#000000;stroke-width:1.5;" x1="22" x2="63.5605" y1="299.2969" y2="299.2969"/><text fill="#000000" font-family="sans-serif" font-size="14" font-weight="bold" lengthAdjust="spacing" textLength="28.5605" x="26" y="291.9951">Log</text></g><!--class CreateCommand__class--><g class="entity" data-entity="CreateCommand__class" data-source-line="15" data-uid="ent0003" id="entity_CreateCommand__class"><rect fill="#F1F1F1" height="32" rx="2.5" ry="2.5" style="stroke:#181818;stroke-width:0.5;" width="150.7813" x="240.5" y="158"/><ellipse cx="255.5" cy="174" fill="#ADD1B2" rx="11" ry="11" style="stroke:#181818;stroke-width:1;"/><path d="M258.4688,179.6406 Q257.8906,179.9375 257.25,180.0781 Q256.6094,180.2344 255.9063,180.2344 Q253.4063,180.2344 252.0781,178.5938 Q250.7656,176.9375 250.7656,173.8125 Q250.7656,170.6875 252.0781,169.0313 Q253.4063,167.375 255.9063,167.375 Q256.6094,167.375 257.25,167.5313 Q257.9063,167.6875 258.4688,167.9844 L258.4688,170.7031 Q257.8438,170.125 257.25,169.8594 Q256.6563,169.5781 256.0313,169.5781 Q254.6875,169.5781 254,170.6563 Q253.3125,171.7188 253.3125,173.8125 Q253.3125,175.9063 254,176.9844 Q254.6875,178.0469 256.0313,178.0469 Q256.6563,178.0469 257.25,177.7813 Q257.8438,177.5 258.4688,176.9219 L258.4688,179.6406 Z " fill="#000000"/><text fill="#000000" font-family="sans-serif" font-size="14" lengthAdjust="spacing" textLength="118.7813" x="269.5" y="178.8467">CreateCommand</text></g><!--class CreateCommandHandler__class--><g class="entity" data-entity="CreateCommandHandler__class" data-source-line="19" data-uid="ent0005" id="entity_CreateCommandHandler__class"><rect fill="#F1F1F1" height="32" rx="2.5" ry="2.5" style="stroke:#181818;stroke-width:0.5;" width="205.9063" x="213" y="108"/><ellipse cx="228" cy="124" fill="#ADD1B2" rx="11" ry="11" style="stroke:#181818;stroke-width:1;"/><path d="M230.9688,129.6406 Q230.3906,129.9375 229.75,130.0781 Q229.1094,130.2344 228.4063,130.2344 Q225.9063,130.2344 224.5781,128.5938 Q223.2656,126.9375 223.2656,123.8125 Q223.2656,120.6875 224.5781,119.0313 Q225.9063,117.375 228.4063,117.375 Q229.1094,117.375 229.75,117.5313 Q230.4063,117.6875 230.9688,117.9844 L230.9688,120.7031 Q230.3438,120.125 229.75,119.8594 Q229.1563,119.5781 228.5313,119.5781 Q227.1875,119.5781 226.5,120.6563 Q225.8125,121.7188 225.8125,123.8125 Q225.8125,125.9063 226.5,126.9844 Q227.1875,128.0469 228.5313,128.0469 Q229.1563,128.0469 229.75,127.7813 Q230.3438,127.5 230.9688,126.9219 L230.9688,129.6406 Z " fill="#000000"/><text fill="#000000" font-family="sans-serif" font-size="14" lengthAdjust="spacing" textLength="173.9063" x="242" y="128.8467">CreateCommandHandler</text></g><!--class GetLastMigrationQuery__class--><g class="entity" data-entity="GetLastMigrationQuery__class" data-source-line="23" data-uid="ent0006" id="entity_GetLastMigrationQuery__class"><rect fill="#F1F1F1" height="32" rx="2.5" ry="2.5" style="stroke:#181818;stroke-width:0.5;" width="194.668" x="218.5" y="58"/><ellipse cx="233.5" cy="74" fill="#ADD1B2" rx="11" ry="11" style="stroke:#181818;stroke-width:1;"/><path d="M236.4688,79.6406 Q235.8906,79.9375 235.25,80.0781 Q234.6094,80.2344 233.9063,80.2344 Q231.4063,80.2344 230.0781,78.5938 Q228.7656,76.9375 228.7656,73.8125 Q228.7656,70.6875 230.0781,69.0313 Q231.4063,67.375 233.9063,67.375 Q234.6094,67.375 235.25,67.5313 Q235.9063,67.6875 236.4688,67.9844 L236.4688,70.7031 Q235.8438,70.125 235.25,69.8594 Q234.6563,69.5781 234.0313,69.5781 Q232.6875,69.5781 232,70.6563 Q231.3125,71.7188 231.3125,73.8125 Q231.3125,75.9063 232,76.9844 Q232.6875,78.0469 234.0313,78.0469 Q234.6563,78.0469 235.25,77.7813 Q235.8438,77.5 236.4688,76.9219 L236.4688,79.6406 Z " fill="#000000"/><text fill="#000000" font-family="sans-serif" font-size="14" lengthAdjust="spacing" textLength="162.668" x="247.5" y="78.8467">GetLastMigrationQuery</text></g><!--class GetPendingMigrationsQuery__class--><g class="entity" data-entity="GetPendingMigrationsQuery__class" data-source-line="27" data-uid="ent0007" id="entity_GetPendingMigrationsQuery__class"><rect fill="#F1F1F1" height="32" rx="2.5" ry="2.5" style="stroke:#181818;stroke-width:0.5;" width="229.2646" x="455" y="158"/><ellipse cx="470" cy="174" fill="#ADD1B2" rx="11" ry="11" style="stroke:#181818;stroke-width:1;"/><path d="M472.9688,179.6406 Q472.3906,179.9375 471.75,180.0781 Q471.1094,180.2344 470.4063,180.2344 Q467.9063,180.2344 466.5781,178.5938 Q465.2656,176.9375 465.2656,173.8125 Q465.2656,170.6875 466.5781,169.0313 Q467.9063,167.375 470.4063,167.375 Q471.1094,167.375 471.75,167.5313 Q472.4063,167.6875 472.9688,167.9844 L472.9688,170.7031 Q472.3438,170.125 471.75,169.8594 Q471.1563,169.5781 470.5313,169.5781 Q469.1875,169.5781 468.5,170.6563 Q467.8125,171.7188 467.8125,173.8125 Q467.8125,175.9063 468.5,176.9844 Q469.1875,178.0469 470.5313,178.0469 Q471.1563,178.0469 471.75,177.7813 Q472.3438,177.5 472.9688,176.9219 L472.9688,179.6406 Z " fill="#000000"/><text fill="#000000" font-family="sans-serif" font-size="14" lengthAdjust="spacing" textLength="197.2646" x="484" y="178.8467">GetPendingMigrationsQuery</text></g><!--class MigrationRunResult__class--><g class="entity" data-entity="MigrationRunResult__class" data-source-line="31" data-uid="ent0008" id="entity_MigrationRunResult__class"><rect fill="#F1F1F1" height="32" rx="2.5" ry="2.5" style="stroke:#181818;stroke-width:0.5;" width="169.3682" x="231.5" y="208"/><ellipse cx="246.5" cy="224" fill="#A9DCDF" rx="11" ry="11" style="stroke:#181818;stroke-width:1;"/><path d="M246.6094,219.3438 L245.4531,224.4219 L247.7813,224.4219 L246.6094,219.3438 Z M245.125,217.1094 L248.1094,217.1094 L251.4688,229.5 L249.0156,229.5 L248.25,226.4375 L244.9688,226.4375 L244.2188,229.5 L241.7813,229.5 L245.125,217.1094 Z " fill="#000000"/><text fill="#000000" font-family="sans-serif" font-size="14" font-style="italic" lengthAdjust="spacing" textLength="137.3682" x="260.5" y="228.8467">MigrationRunResult</text></g><!--class MigrationRunCompleted__class--><g class="entity" data-entity="MigrationRunCompleted__class" data-source-line="35" data-uid="ent0009" id="entity_MigrationRunCompleted__class"><rect fill="#F1F1F1" height="32" rx="2.5" ry="2.5" style="stroke:#181818;stroke-width:0.5;" width="201.8389" x="468.5" y="258"/><ellipse cx="483.5" cy="274" fill="#ADD1B2" rx="11" ry="11" style="stroke:#181818;stroke-width:1;"/><path d="M486.4688,279.6406 Q485.8906,279.9375 485.25,280.0781 Q484.6094,280.2344 483.9063,280.2344 Q481.4063,280.2344 480.0781,278.5938 Q478.7656,276.9375 478.7656,273.8125 Q478.7656,270.6875 480.0781,269.0313 Q481.4063,267.375 483.9063,267.375 Q484.6094,267.375 485.25,267.5313 Q485.9063,267.6875 486.4688,267.9844 L486.4688,270.7031 Q485.8438,270.125 485.25,269.8594 Q484.6563,269.5781 484.0313,269.5781 Q482.6875,269.5781 482,270.6563 Q481.3125,271.7188 481.3125,273.8125 Q481.3125,275.9063 482,276.9844 Q482.6875,278.0469 484.0313,278.0469 Q484.6563,278.0469 485.25,277.7813 Q485.8438,277.5 486.4688,276.9219 L486.4688,279.6406 Z " fill="#000000"/><text fill="#000000" font-family="sans-serif" font-size="14" lengthAdjust="spacing" textLength="169.8389" x="497.5" y="278.8467">MigrationRunCompleted</text></g><!--class MigrationRunFailure__class--><g class="entity" data-entity="MigrationRunFailure__class" data-source-line="39" data-uid="ent0011" id="entity_MigrationRunFailure__class"><rect fill="#F1F1F1" height="32" rx="2.5" ry="2.5" style="stroke:#181818;stroke-width:0.5;" width="173.1348" x="483" y="208"/><ellipse cx="498" cy="224" fill="#ADD1B2" rx="11" ry="11" style="stroke:#181818;stroke-width:1;"/><path d="M500.9688,229.6406 Q500.3906,229.9375 499.75,230.0781 Q499.1094,230.2344 498.4063,230.2344 Q495.9063,230.2344 494.5781,228.5938 Q493.2656,226.9375 493.2656,223.8125 Q493.2656,220.6875 494.5781,219.0313 Q495.9063,217.375 498.4063,217.375 Q499.1094,217.375 499.75,217.5313 Q500.4063,217.6875 500.9688,217.9844 L500.9688,220.7031 Q500.3438,220.125 499.75,219.8594 Q499.1563,219.5781 498.5313,219.5781 Q497.1875,219.5781 496.5,220.6563 Q495.8125,221.7188 495.8125,223.8125 Q495.8125,225.9063 496.5,226.9844 Q497.1875,228.0469 498.5313,228.0469 Q499.1563,228.0469 499.75,227.7813 Q500.3438,227.5 500.9688,226.9219 L500.9688,229.6406 Z " fill="#000000"/><text fill="#000000" font-family="sans-serif" font-size="14" lengthAdjust="spacing" textLength="141.1348" x="512" y="228.8467">MigrationRunFailure</text></g><!--class RevertCommand__class--><g class="entity" data-entity="RevertCommand__class" data-source-line="43" data-uid="ent0013" id="entity_RevertCommand__class"><rect fill="#F1F1F1" height="32" rx="2.5" ry="2.5" style="stroke:#181818;stroke-width:0.5;" width="150.4395" x="494.5" y="108"/><ellipse cx="509.5" cy="124" fill="#ADD1B2" rx="11" ry="11" style="stroke:#181818;stroke-width:1;"/><path d="M512.4688,129.6406 Q511.8906,129.9375 511.25,130.0781 Q510.6094,130.2344 509.9063,130.2344 Q507.4063,130.2344 506.0781,128.5938 Q504.7656,126.9375 504.7656,123.8125 Q504.7656,120.6875 506.0781,119.0313 Q507.4063,117.375 509.9063,117.375 Q510.6094,117.375 511.25,117.5313 Q511.9063,117.6875 512.4688,117.9844 L512.4688,120.7031 Q511.8438,120.125 511.25,119.8594 Q510.6563,119.5781 510.0313,119.5781 Q508.6875,119.5781 508,120.6563 Q507.3125,121.7188 507.3125,123.8125 Q507.3125,125.9063 508,126.9844 Q508.6875,128.0469 510.0313,128.0469 Q510.6563,128.0469 511.25,127.7813 Q511.8438,127.5 512.4688,126.9219 L512.4688,129.6406 Z " fill="#000000"/><text fill="#000000" font-family="sans-serif" font-size="14" lengthAdjust="spacing" textLength="118.4395" x="523.5" y="128.8467">RevertCommand</text></g><!--class RevertCommandHandler__class--><g class="entity" data-entity="RevertCommandHandler__class" data-source-line="47" data-uid="ent0014" id="entity_RevertCommandHandler__class"><rect fill="#F1F1F1" height="32" rx="2.5" ry="2.5" style="stroke:#181818;stroke-width:0.5;" width="205.5645" x="466.5" y="58"/><ellipse cx="481.5" cy="74" fill="#ADD1B2" rx="11" ry="11" style="stroke:#181818;stroke-width:1;"/><path d="M484.4688,79.6406 Q483.8906,79.9375 483.25,80.0781 Q482.6094,80.2344 481.9063,80.2344 Q479.4063,80.2344 478.0781,78.5938 Q476.7656,76.9375 476.7656,73.8125 Q476.7656,70.6875 478.0781,69.0313 Q479.4063,67.375 481.9063,67.375 Q482.6094,67.375 483.25,67.5313 Q483.9063,67.6875 484.4688,67.9844 L484.4688,70.7031 Q483.8438,70.125 483.25,69.8594 Q482.6563,69.5781 482.0313,69.5781 Q480.6875,69.5781 480,70.6563 Q479.3125,71.7188 479.3125,73.8125 Q479.3125,75.9063 480,76.9844 Q480.6875,78.0469 482.0313,78.0469 Q482.6563,78.0469 483.25,77.7813 Q483.8438,77.5 484.4688,76.9219 L484.4688,79.6406 Z " fill="#000000"/><text fill="#000000" font-family="sans-serif" font-size="14" lengthAdjust="spacing" textLength="173.5645" x="495.5" y="78.8467">RevertCommandHandler</text></g><!--class RunCommand__class--><g class="entity" data-entity="RunCommand__class" data-source-line="51" data-uid="ent0015" id="entity_RunCommand__class"><rect fill="#F1F1F1" height="32" rx="2.5" ry="2.5" style="stroke:#181818;stroke-width:0.5;" width="131.4287" x="748" y="158"/><ellipse cx="763" cy="174" fill="#ADD1B2" rx="11" ry="11" style="stroke:#181818;stroke-width:1;"/><path d="M765.9688,179.6406 Q765.3906,179.9375 764.75,180.0781 Q764.1094,180.2344 763.4063,180.2344 Q760.9063,180.2344 759.5781,178.5938 Q758.2656,176.9375 758.2656,173.8125 Q758.2656,170.6875 759.5781,169.0313 Q760.9063,167.375 763.4063,167.375 Q764.1094,167.375 764.75,167.5313 Q765.4063,167.6875 765.9688,167.9844 L765.9688,170.7031 Q765.3438,170.125 764.75,169.8594 Q764.1563,169.5781 763.5313,169.5781 Q762.1875,169.5781 761.5,170.6563 Q760.8125,171.7188 760.8125,173.8125 Q760.8125,175.9063 761.5,176.9844 Q762.1875,178.0469 763.5313,178.0469 Q764.1563,178.0469 764.75,177.7813 Q765.3438,177.5 765.9688,176.9219 L765.9688,179.6406 Z " fill="#000000"/><text fill="#000000" font-family="sans-serif" font-size="14" lengthAdjust="spacing" textLength="99.4287" x="777" y="178.8467">RunCommand</text></g><!--class RunCommandHandler__class--><g class="entity" data-entity="RunCommandHandler__class" data-source-line="55" data-uid="ent0016" id="entity_RunCommandHandler__class"><rect fill="#F1F1F1" height="32" rx="2.5" ry="2.5" style="stroke:#181818;stroke-width:0.5;" width="186.5537" x="720" y="108"/><ellipse cx="735" cy="124" fill="#ADD1B2" rx="11" ry="11" style="stroke:#181818;stroke-width:1;"/><path d="M737.9688,129.6406 Q737.3906,129.9375 736.75,130.0781 Q736.1094,130.2344 735.4063,130.2344 Q732.9063,130.2344 731.5781,128.5938 Q730.2656,126.9375 730.2656,123.8125 Q730.2656,120.6875 731.5781,119.0313 Q732.9063,117.375 735.4063,117.375 Q736.1094,117.375 736.75,117.5313 Q737.4063,117.6875 737.9688,117.9844 L737.9688,120.7031 Q737.3438,120.125 736.75,119.8594 Q736.1563,119.5781 735.5313,119.5781 Q734.1875,119.5781 733.5,120.6563 Q732.8125,121.7188 732.8125,123.8125 Q732.8125,125.9063 733.5,126.9844 Q734.1875,128.0469 735.5313,128.0469 Q736.1563,128.0469 736.75,127.7813 Q737.3438,127.5 737.9688,126.9219 L737.9688,129.6406 Z " fill="#000000"/><text fill="#000000" font-family="sans-serif" font-size="14" lengthAdjust="spacing" textLength="154.5537" x="749" y="128.8467">RunCommandHandler</text></g><!--class FileWriterInterface__interface--><g class="entity" data-entity="FileWriterInterface__interface" data-source-line="59" data-uid="ent0017" id="entity_FileWriterInterface__interface"><rect fill="#F1F1F1" height="32" rx="2.5" ry="2.5" style="stroke:#181818;stroke-width:0.5;" width="162.4707" x="235" y="258"/><ellipse cx="250" cy="274" fill="#B4A7E5" rx="11" ry="11" style="stroke:#181818;stroke-width:1;"/><path d="M245.9219,269.7656 L245.9219,267.6094 L253.3125,267.6094 L253.3125,269.7656 L250.8438,269.7656 L250.8438,277.8438 L253.3125,277.8438 L253.3125,280 L245.9219,280 L245.9219,277.8438 L248.3906,277.8438 L248.3906,269.7656 L245.9219,269.7656 Z " fill="#000000"/><text fill="#000000" font-family="sans-serif" font-size="14" font-style="italic" lengthAdjust="spacing" textLength="130.4707" x="264" y="278.8467">FileWriterInterface</text></g><!--class SimpleFileWriter__class--><g class="entity" data-entity="SimpleFileWriter__class" data-source-line="63" data-uid="ent0018" id="entity_SimpleFileWriter__class"><rect fill="#F1F1F1" height="32" rx="2.5" ry="2.5" style="stroke:#181818;stroke-width:0.5;" width="147.5957" x="495.5" y="308"/><ellipse cx="510.5" cy="324" fill="#ADD1B2" rx="11" ry="11" style="stroke:#181818;stroke-width:1;"/><path d="M513.4688,329.6406 Q512.8906,329.9375 512.25,330.0781 Q511.6094,330.2344 510.9063,330.2344 Q508.4063,330.2344 507.0781,328.5938 Q505.7656,326.9375 505.7656,323.8125 Q505.7656,320.6875 507.0781,319.0313 Q508.4063,317.375 510.9063,317.375 Q511.6094,317.375 512.25,317.5313 Q512.9063,317.6875 513.4688,317.9844 L513.4688,320.7031 Q512.8438,320.125 512.25,319.8594 Q511.6563,319.5781 511.0313,319.5781 Q509.6875,319.5781 509,320.6563 Q508.3125,321.7188 508.3125,323.8125 Q508.3125,325.9063 509,326.9844 Q509.6875,328.0469 511.0313,328.0469 Q511.6563,328.0469 512.25,327.7813 Q512.8438,327.5 513.4688,326.9219 L513.4688,329.6406 Z " fill="#000000"/><text fill="#000000" font-family="sans-serif" font-size="14" lengthAdjust="spacing" textLength="115.5957" x="524.5" y="328.8467">SimpleFileWriter</text></g><!--class StreamLogger__class--><g class="entity" data-entity="StreamLogger__class" data-source-line="71" data-uid="ent0023" id="entity_StreamLogger__class"><rect fill="#F1F1F1" height="32" rx="2.5" ry="2.5" style="stroke:#181818;stroke-width:0.5;" width="131.4697" x="250.5" y="308"/><ellipse cx="265.5" cy="324" fill="#ADD1B2" rx="11" ry="11" style="stroke:#181818;stroke-width:1;"/><path d="M268.4688,329.6406 Q267.8906,329.9375 267.25,330.0781 Q266.6094,330.2344 265.9063,330.2344 Q263.4063,330.2344 262.0781,328.5938 Q260.7656,326.9375 260.7656,323.8125 Q260.7656,320.6875 262.0781,319.0313 Q263.4063,317.375 265.9063,317.375 Q266.6094,317.375 267.25,317.5313 Q267.9063,317.6875 268.4688,317.9844 L268.4688,320.7031 Q267.8438,320.125 267.25,319.8594 Q266.6563,319.5781 266.0313,319.5781 Q264.6875,319.5781 264,320.6563 Q263.3125,321.7188 263.3125,323.8125 Q263.3125,325.9063 264,326.9844 Q264.6875,328.0469 266.0313,328.0469 Q266.6563,328.0469 267.25,327.7813 Q267.8438,327.5 268.4688,326.9219 L268.4688,329.6406 Z " fill="#000000"/><text fill="#000000" font-family="sans-serif" font-size="14" lengthAdjust="spacing" textLength="99.4697" x="279.5" y="328.8467">StreamLogger</text></g><!--class LedgerInsertStatus__enum--><g class="entity" data-entity="LedgerInsertStatus__enum" data-source-line="75" data-uid="ent0025" id="entity_LedgerInsertStatus__enum"><rect fill="#F1F1F1" height="32" rx="2.5" ry="2.5" style="stroke:#181818;stroke-width:0.5;" width="165.3213" x="731" y="58"/><ellipse cx="746" cy="74" fill="#EB937F" rx="11" ry="11" style="stroke:#181818;stroke-width:1;"/><path d="M750.1094,80 L742.3906,80 L742.3906,67.6094 L750.1094,67.6094 L750.1094,69.7656 L744.8438,69.7656 L744.8438,72.4375 L749.6094,72.4375 L749.6094,74.5938 L744.8438,74.5938 L744.8438,77.8438 L750.1094,77.8438 L750.1094,80 Z " fill="#000000"/><text fill="#000000" font-family="sans-serif" font-size="14" lengthAdjust="spacing" textLength="133.3213" x="760" y="78.8467">LedgerInsertStatus</text></g><!--class LoggerInterface__class--><g class="entity" data-entity="LoggerInterface__class" data-source-line="67" data-uid="ent0021" id="entity_LoggerInterface__class"><rect fill="#F1F1F1" height="40.2656" rx="2.5" ry="2.5" style="stroke:#181818;stroke-width:0.5;" width="143.1865" x="30" y="304"/><ellipse cx="45" cy="324.1328" fill="#ADD1B2" rx="11" ry="11" style="stroke:#181818;stroke-width:1;"/><path d="M47.9688,329.7734 Q47.3906,330.0703 46.75,330.2109 Q46.1094,330.3672 45.4063,330.3672 Q42.9063,330.3672 41.5781,328.7266 Q40.2656,327.0703 40.2656,323.9453 Q40.2656,320.8203 41.5781,319.1641 Q42.9063,317.5078 45.4063,317.5078 Q46.1094,317.5078 46.75,317.6641 Q47.4063,317.8203 47.9688,318.1172 L47.9688,320.8359 Q47.3438,320.2578 46.75,319.9922 Q46.1563,319.7109 45.5313,319.7109 Q44.1875,319.7109 43.5,320.7891 Q42.8125,321.8516 42.8125,323.9453 Q42.8125,326.0391 43.5,327.1172 Q44.1875,328.1797 45.5313,328.1797 Q46.1563,328.1797 46.75,327.9141 Q47.3438,327.6328 47.9688,327.0547 L47.9688,329.7734 Z " fill="#000000"/><text fill="#000000" font-family="sans-serif" font-size="12" font-style="italic" lengthAdjust="spacing" textLength="64.4824" x="82.3521" y="320.1387">&#171;external&#187;</text><text fill="#000000" font-family="sans-serif" font-size="14" lengthAdjust="spacing" textLength="111.1865" x="59" y="335.9639">LoggerInterface</text></g><g class="link" data-entity-1="MigrationRunResult__class" data-entity-2="MigrationRunCompleted__class" data-uid="lnk10" id="link_MigrationRunResult__class_MigrationRunCompleted__class"><polygon fill="none" points="397.6139,240.0266,414.0985,249.4213,416.4384,237.6516,397.6139,240.0266" style="stroke:#516F42;stroke-width:1;"/><path d="M415.2684,243.5365 C444.1475,249.2778 459.0341,252.2374 487.9111,257.9784" fill="none" style="stroke:#516F42;stroke-width:1;"/></g><g class="link" data-entity-1="MigrationRunResult__class" data-entity-2="MigrationRunFailure__class" data-uid="lnk12" id="link_MigrationRunResult__class_MigrationRunFailure__class"><polygon fill="none" points="400.7459,224,418.7459,230,418.7459,218,400.7459,224" style="stroke:#516F42;stroke-width:1;"/><path d="M418.7459,224 C445.1812,224 456.4145,224 482.9725,224" fill="none" style="stroke:#516F42;stroke-width:1;"/></g><g class="link" data-entity-1="FileWriterInterface__interface" data-entity-2="SimpleFileWriter__class" data-uid="lnk19" id="link_FileWriterInterface__interface_SimpleFileWriter__class"><polygon fill="none" points="397.2677,289.9578,413.7522,299.3525,416.0921,287.5828,397.2677,289.9578" style="stroke:#516F42;stroke-width:1;"/><path d="M414.9221,293.4676 C446.4048,299.7266 464.6286,303.3496 495.3823,309.4637" fill="none" style="stroke:#516F42;stroke-width:1;stroke-dasharray:7,7;"/></g><g class="link" data-entity-1="LoggerInterface__class" data-entity-2="StreamLogger__class" data-uid="lnk24" id="link_LoggerInterface__class_StreamLogger__class"><polygon fill="none" points="173.2594,324,191.2594,330,191.2594,318,173.2594,324" style="stroke:#516F42;stroke-width:1;"/><path d="M191.2594,324 C216.1309,324 225.9336,324 250.2826,324" fill="none" style="stroke:#516F42;stroke-width:1;stroke-dasharray:7,7;"/></g><!--SRC=[nLNRQjj047tNLqpTBsXf-nG2hKlQGWgf_T0NWvXOOsd9NiJiAAae-VUkrx8kbanTEr21X7JEx9mpipleLScO6mIDjQi4l251Yma0-0TbIsGqy97PFSsTTWoltx_vi7dtTiZZMjIZalgJuupub41SF-JiAfirmPjuJGT_LcYSpKvEley_HSCNcBadPNFOeFQK9CUfZj7AajGbWMCfN5AeZ81CAJKOClV4Fj6q4H07hF9285DCmPkpYIS1YuPyYMjQqZQT16khLPAqCDmLfTF8gzLtbGS-hFFmUsiROAtHUvZDcL1exen1cyq0FGoGDDt5XMktxZbvFZ__rt1huh5CGroizeNa5hsq_8-Ak8voaynBwDsHpSBETY43pMdsR5syzyBXSBO6seX5PHVaAorHUGnVN6e_PTYrKfDGDX9hcKwFVabeWWydSqAazpwsUhdH6rIwOXhPRF3_Pt91ZyJI7xi1Sl5k3RBrnswAk5mjRdnNIllvWfa7HHoYP-ieAyIRRSpiHcdwoIfyVzk3KMm2JzDktPc5BTLsKBhSKUeGx9KL6KDMZfxHl_YSjEb3ZbkNDsHZBG3vOHCEiBsngwiuEMnHm_NrcPsGy2SmEu5T5th0qGuqpkDZojc_UI5RcL0uPJ6L3nEo59JAxseVmMaQ5tGQVm00]--></g></svg>